<svg xmlns="http://www.w3.org/2000/svg" xmlns:xlink="http://www.w3.org/1999/xlink" version="1.1" xml:space="preserve" viewBox="0 0 988.17 933.06">
<desc>Created with Fabric.js 3.5.0</desc>
<defs>
</defs>
<rect x="0" y="0" width="100%" height="100%" fill="rgba(255,255,255,0)"/>
<g transform="matrix(0.2941 0 0 0.2947 499.9927 500.2314)" id="Layer_1">
<path style="stroke: none; stroke-width: 1; stroke-dasharray: none; stroke-linecap: butt; stroke-dashoffset: 0; stroke-linejoin: miter; stroke-miterlimit: 4; is-custom-font: none; font-file-url: none; fill: rgb(254,254,254); fill-opacity: 0; fill-rule: nonzero; opacity: 1;" transform=" translate(-651.7244, -633.2632)" d="M 1065.63623 354.000183 C 1065.63623 579.884216 1065.63623 804.768188 1065.63623 1030.231567 C 789.304871 1030.231567 513.871216 1030.231567 237.812515 1030.231567 C 237.812515 765.629456 237.812515 501.21991 237.812515 236.294739 C 513.432983 236.294739 788.913513 236.294739 1065.63623 236.294739 C 1065.63623 275.257935 1065.63623 314.129028 1065.63623 354.000183 M 776.718201 736.294312 C 803.024658 781.855652 829.223389 827.479919 855.758301 872.907837 C 859.567017 879.428284 864.258179 885.82074 869.828491 890.844971 C 881.845703 901.684265 896.399475 903.120789 910.987976 897.377747 C 925.234497 891.76947 934.048584 880.854919 936.440002 865.314575 C 938.253845 853.5271 934.858826 843.153015 928.978333 832.973328 C 857.525696 709.281128 786.232422 585.496826 714.899231 461.735596 C 707.084412 448.177094 699.238342 434.636353 691.48175 421.044586 C 686.088623 411.594299 678.368225 404.8461 667.715637 402.63266 C 651.763916 399.318176 637.11792 402.062042 625.674927 414.765503 C 614.369141 427.31665 611.797729 441.810486 617.583923 457.507233 C 619.982971 464.015442 623.328613 470.24295 626.802612 476.276337 C 676.48053 562.554382 726.25415 648.777405 776.718201 736.294312 M 462.477051 693.483093 C 435.939362 739.659119 409.401001 785.834778 382.865936 832.012268 C 381.372772 834.610718 379.761841 837.154175 378.451691 839.84314 C 368.886261 859.475037 375.435486 882.638733 393.770203 894.236389 C 411.326538 905.341675 433.97525 901.485474 447.638672 884.752258 C 451.192993 880.399292 454.131439 875.483215 456.931213 870.584778 C 469.484314 848.621948 481.874329 826.565918 494.354797 804.561462 C 495.958099 801.73468 497.745819 799.012512 499.429077 796.272888 C 503.655579 796.272888 507.309479 796.273621 510.963379 796.272827 C 552.617065 796.264221 594.273682 796.550354 635.923523 796.144897 C 664.609314 795.865723 683.646912 767.574219 673.993652 740.54126 C 668.134399 724.133057 653.290039 713.618469 634.766846 713.456177 C 608.443665 713.225525 582.117004 713.402954 555.79187 713.371948 C 553.323486 713.36908 550.855408 713.122559 547.424805 712.937195 C 549.215393 709.605042 550.371643 707.287415 551.674194 705.055115 C 563.250305 685.21637 574.94812 665.447693 586.386414 645.530029 C 589.687134 639.782471 592.877991 633.83313 595.048401 627.603271 C 600.056702 613.227783 597.075989 600.087769 587.40863 588.387268 C 569.547729 566.769897 532.455444 570.072632 519.332397 594.326965 C 501.438812 627.398254 482.03537 659.652527 462.477051 693.483093 z" stroke-linecap="round"/>
</g>
<g transform="matrix(5.8981 0 0 5.8981 499.9964 499.9969)" id="303759">
<g style="">
		<g transform="matrix(0.2941 0 0 0.2941 35.3681 -0.0044)" id="Layer_1">
<path style="stroke: none; stroke-width: 1; stroke-dasharray: none; stroke-linecap: butt; stroke-dashoffset: 0; stroke-linejoin: miter; stroke-miterlimit: 4; is-custom-font: none; font-file-url: none; fill: rgb(2,2,2); fill-rule: nonzero; opacity: 1;" transform=" translate(-775.762, -651.0181)" d="M 776.36145 735.653931 C 726.25415 648.777405 676.48053 562.554382 626.802612 476.276337 C 623.328613 470.24295 619.982971 464.015442 617.583923 457.507233 C 611.797729 441.810486 614.369141 427.31665 625.674927 414.765503 C 637.11792 402.062042 651.763916 399.318176 667.715637 402.63266 C 678.368225 404.8461 686.088623 411.594299 691.48175 421.044586 C 699.238342 434.636353 707.084412 448.177094 714.899231 461.735596 C 786.232422 585.496826 857.525696 709.281128 928.978333 832.973328 C 934.858826 843.153015 938.253845 853.5271 936.440002 865.314575 C 934.048584 880.854919 925.234497 891.76947 910.987976 897.377747 C 896.399475 903.120789 881.845703 901.684265 869.828491 890.844971 C 864.258179 885.82074 859.567017 879.428284 855.758301 872.907837 C 829.223389 827.479919 803.024658 781.855652 776.36145 735.653931 z" stroke-linecap="round"/>
</g>
		<g transform="matrix(0.2941 0 0 0.2941 -38.2969 25.361)" id="Layer_1">
<path style="stroke: none; stroke-width: 1; stroke-dasharray: none; stroke-linecap: butt; stroke-dashoffset: 0; stroke-linejoin: miter; stroke-miterlimit: 4; is-custom-font: none; font-file-url: none; fill: rgb(2,2,2); fill-rule: nonzero; opacity: 1;" transform=" translate(-525.3008, -737.2553)" d="M 462.878174 692.870117 C 482.03537 659.652527 501.438812 627.398254 519.332397 594.326965 C 532.455444 570.072632 569.547729 566.769897 587.40863 588.387268 C 597.075989 600.087769 600.056702 613.227783 595.048401 627.603271 C 592.877991 633.83313 589.687134 639.782471 586.386414 645.530029 C 574.94812 665.447693 563.250305 685.21637 551.674194 705.055115 C 550.371643 707.287415 549.215393 709.605042 547.424805 712.937195 C 550.855408 713.122559 553.323486 713.36908 555.79187 713.371948 C 582.117004 713.402954 608.443665 713.225525 634.766846 713.456177 C 653.290039 713.618469 668.134399 724.133057 673.993652 740.54126 C 683.646912 767.574219 664.609314 795.865723 635.923523 796.144897 C 594.273682 796.550354 552.617065 796.264221 510.963379 796.272827 C 507.309479 796.273621 503.655579 796.272888 499.429077 796.272888 C 497.745819 799.012512 495.958099 801.73468 494.354797 804.561462 C 481.874329 826.565918 469.484314 848.621948 456.931213 870.584778 C 454.131439 875.483215 451.192993 880.399292 447.638672 884.752258 C 433.97525 901.485474 411.326538 905.341675 393.770203 894.236389 C 375.435486 882.638733 368.886261 859.475037 378.451691 839.84314 C 379.761841 837.154175 381.372772 834.610718 382.865936 832.012268 C 409.401001 785.834778 435.939362 739.659119 462.878174 692.870117 z" stroke-linecap="round"/>
</g>
</g>
</g>
</svg>